# AST/ASF file generated using VICON BodyLanguage
# -----------------------------------------------
:version 1.10
:name VICON
:units
  mass 1.0
  length 0.45
  angle deg
:documentation
   .ast/.asf automatically generated from VICON data using
   VICON BodyBuilder and BodyLanguage model FoxedUp or BRILLIANT.MOD
:root
   order TX TY TZ RX RY RZ
   axis XYZ
   position 0 0 0  
   orientation 0 0 0 
:bonedata
  begin
     id 1 
     name lhipjoint
     direction 0.612567 -0.751349 0.245431 
     length 2.42285 
     axis 0 0 0  XYZ
  end
  begin
     id 2 
     name lfemur
     direction 0.34202 -0.939693 0  
     length 7.11304  
     axis 0 0 20  XYZ
    dof rx ry rz
    limits (-160.0 20.0)
           (-70.0 70.0)
           (-60.0 70.0)
  end
  begin
     id 3 
     name ltibia
     direction 0.34202 -0.939693 0   
     length 7.84529   
     axis 0 0 20   XYZ
    dof rx
    limits (-10.0 170.0)
  end
  begin
     id 4 
     name lfoot
     direction 0.0779239 -0.214094 0.9737   
     length 1.97176   
     axis -90 7.62852e-016 20   XYZ
    dof rx rz
    limits (-45.0 90.0)
           (-70.0 20.0)
  end
  begin
     id 5 
     name ltoes
     direction 1.53565e-011 -4.21709e-011 1   
     length 0.993197   
     axis -90 7.62852e-016 20   XYZ
    dof rx
    limits (-90.0 20.0)
  end
  begin
     id 6 
     name rhipjoint
     direction -0.665722 -0.709315 0.231701   
     length 2.56642  
     axis 0 0 0  XYZ 
  end
  begin
     id 7 
     name rfemur
     direction -0.34202 -0.939693 0   
     length 7.32108   
     axis 0 0 -20   XYZ
    dof rx ry rz
    limits (-160.0 20.0)
           (-70.0 70.0)
           (-70.0 60.0)
  end
  begin
     id 8 
     name rtibia
     direction -0.34202 -0.939693 0   
     length 7.81254   
     axis 0 0 -20   XYZ
    dof rx
    limits (-10.0 170.0)
 end
 begin
     id 9 
     name rfoot
     direction -0.0832806 -0.228812 0.969902   
     length 2.08278  
     axis -90 -7.62852e-016 -20   XYZ
    dof rx rz
    limits (-45.0 90.0)
           (-20.0 70.0)
  end
  begin
     id 10 
     name rtoes
     direction -1.53589e-011 -4.22086e-011 1   
     length 1.04609   
     axis -90 -7.62852e-016 -20   XYZ
    dof rx
    limits (-90.0 20.0)
  end
  begin
     id 11 
     name lowerback
     direction -0.00506013 0.988403 -0.151766   
     length 2.01978   
     axis 0 0 0   XYZ
    dof rx ry rz
    limits (-20.0 45.0)
           (-30.0 30.0)
           (-30.0 30.0)
  end
  begin
     id 12 
     name upperback
     direction -0.00836389 0.99968 0.0238859   
     length 2.01276   
     axis 0 0 0   XYZ
    dof rx ry rz
    limits (-20.0 45.0)
           (-30.0 30.0)
           (-30.0 30.0)
  end
  begin
     id 13 
     name thorax
     direction -0.00684136 0.995386 0.0957043   
     length 2.07303   
     axis 0 0 0   XYZ
    dof rx ry rz
    limits (-20.0 45.0)
           (-30.0 30.0)
           (-30.0 30.0)
  end
  begin
     id 14 
     name lowerneck
     direction -0.0161045 0.999661 0.0204485   
     length 1.91243   
     axis 0 0 0   XYZ
    dof rx ry rz
    limits (-20.0 45.0)
           (-30.0 30.0)
           (-30.0 30.0)
  end
  begin
     id 15 
     name upperneck
     direction 0.0553583 0.990946 -0.122319   
     length 1.91574   
     axis 0 0 0   XYZ
    dof rx ry rz
    limits (-20.0 45.0)
           (-30.0 30.0)
           (-30.0 30.0)
  end
  begin
     id 16
     name head
     direction 0.0180273 0.998839 -0.0446756  
     length 1.92693  
     axis 0 0 0   XYZ
    dof rx ry rz
    limits (-20.0 45.0)
           (-30.0 30.0)
           (-30.0 30.0)
  end
  begin
     id 17 
     name lclavicle
     direction 0.945646 0.319323 -0.0615358  
     length 4.0076  
     axis 0 0 0   XYZ
    dof ry rz
    limits (-20.0 10.0)
           (0.0 20.0)
  end
  begin
     id 18 
     name lhumerus
     direction 1 -4.48967e-011 -2.79996e-027   
     length 5.64147   
     axis 180 -30 -90   XYZ
    dof rx ry rz
    limits (-60.0 90.0)
           (-90.0 90.0)
           (-90.0 90.0)
  end
  begin
     id 19
     name lradius
     direction 1 -4.48976e-011 -9.5122e-027   
     length 2.86444   
     axis 180 -30 -90   XYZ
    dof rx
    limits (-10.0 170.0)
  end
  begin
     id 20
     name lwrist
     direction 1 -4.48983e-011 -1.24047e-026   
     length 1.43222   
     axis 9.05591e-015 90 90   XYZ
    dof ry
    limits (-180.0 0.0)
 end
  begin
     id 21 
     name lhand
     direction 1 -4.4892e-011 -2.48094e-026   
     length 0.722123   
     axis 1.58305e-014 90 90   XYZ
    dof rx rz
    limits (-90.0 90.0)
           (-45.0 45.0)
  end
  begin
     id 22 
     name lfingers
     direction 1 -4.48895e-011 -4.96187e-026   
     length 0.582194   
     axis 3.1661e-014 90 90   XYZ
    dof rx
    limits (0.0 90.0)
  end
  begin
     id 23
     name lthumb
     direction 0.707107 -6.34961e-011 0.707107   
     length 0.835918   
     axis -90 45 2.85299e-015   XYZ
    dof rx rz
    limits (-45.0 45.0)
           (-45.0 45.0)
  end
  begin
     id 24 
     name rclavicle
     direction -0.932635 0.324218 -0.15835   
     length 3.65819  
     axis 0 0 0   XYZ 
    dof ry rz
    limits (-10.0 20.0)
           (-20.0 0.0)
  end
  begin
     id 25 
     name rhumerus
     direction -1 -4.48965e-011 -4.02296e-027  
     length 5.44729   
     axis 180 30 90   XYZ
    dof rx ry rz
    limits (-90.0 60.0)
           (-90.0 90.0)
           (-90.0 90.0)
  end
  begin
     id 26 
     name rradius
     direction -1 -4.48957e-011 -8.81087e-027   
     length 3.08821   
     axis 180 30 90   XYZ
    dof rx
    limits (-10.0 170.0)
  end
  begin
     id 27 
     name rwrist
     direction -1 -4.49015e-011 -1.24047e-026   
     length 1.5441   
     axis 9.05591e-015 -90 -90   XYZ
    dof ry
    limits (-180.0 0.0)
  end
  begin
     id 28
     name rhand
     direction -1 -4.4891e-011 -2.48094e-026   
     length 0.821049   
     axis 1.58305e-014 -90 -90   XYZ
    dof rx rz
    limits (-90.0 90.0)
           (-45.0 45.0)
  end
  begin
     id 29
     name rfingers
     direction -1 -4.48985e-011 -4.96187e-026   
     length 0.661951   
     axis 3.1661e-014 -90 -90   XYZ
    dof rx
    limits (0.0 90.0)
  end
  begin
     id 30
     name rthumb
     direction -0.707107 -6.34906e-011 0.707107   
     length 0.950433   
     axis -90 -45 -2.85299e-015   XYZ
    dof rx rz
    limits (-45.0 45.0)
           (-45.0 45.0)
  end
:hierarchy
  begin
    root lhipjoint rhipjoint lowerback
    lhipjoint lfemur
    lfemur ltibia
    ltibia lfoot
    lfoot ltoes
    rhipjoint rfemur
    rfemur rtibia
    rtibia rfoot
    rfoot rtoes
    lowerback upperback
    upperback thorax
    thorax lowerneck lclavicle rclavicle
    lowerneck upperneck
    upperneck head
    lclavicle lhumerus
    lhumerus lradius
    lradius lwrist
    lwrist lhand lthumb
    lhand lfingers
    rclavicle rhumerus
    rhumerus rradius
    rradius rwrist
    rwrist rhand rthumb
    rhand rfingers
  end

#!OML:ASF F:\VICON\USERDATA\INSTALL\rory3\rory3.ASF
:FULLY-SPECIFIED
:DEGREES
904
root 3.45137 17.434 -1.86757 -181.671 -34.4152 -177.576
lowerback 0.430993 1.51222 5.00455
upperback 3.15095 1.89297 -0.490637
thorax 3.1934 1.05864 -3.26445
lowerneck -2.89392 -4.49025 -4.03862
upperneck 13.3386 -6.89575 5.41228
head 4.79553 -3.44305 1.96002
rclavicle 1.35049e-014 -8.05078e-015
rhumerus -25.9913 3.63138 -90.2082
rradius 30.65
rwrist 14.6653
rhand -7.6072 9.1247
rfingers 7.12502
rthumb 18.2868 -20.0357
lclavicle 1.35049e-014 -8.05078e-015
lhumerus -40.8643 -4.57062 90.9793
lradius 29.2
lwrist 32.517
lhand -12.6076 10.9688
lfingers 7.12502
lthumb 13.4714 40.5132
rfemur 9.57296 -2.94025 28.8873
rtibia 12.8793
rfoot -18.6757 0.825852
rtoes -3.74679
lfemur -25.1401 4.24491 -23.9984
ltibia 12.5584
lfoot -11.4069 -1.97477
ltoes -11.5356
905
root 3.40301 17.4276 -1.93802 -181.646 -34.2127 -177.508
lowerback 0.401769 1.51791 4.96758
upperback 3.15429 1.89891 -0.475916
thorax 3.2119 1.0608 -3.22746
lowerneck -3.02513 -4.44397 -4.00073
upperneck 13.4293 -6.8257 5.33384
head 4.83819 -3.40799 1.92967
rclavicle 3.8527e-014 6.06293e-015
rhumerus -25.8869 4.13457 -90.4358
rradius 31.1109
rwrist 14.3145
rhand -7.58584 9.13814
rfingers 7.12502
rthumb 18.3073 -20.0204
lclavicle 3.8527e-014 6.06293e-015
lhumerus -41.0813 -4.49236 91.0671
lradius 29.0819
lwrist 32.5438
lhand -12.7211 11.0298
lfingers 7.12502
lthumb 13.362 40.5814
rfemur 10.0122 -2.85296 28.9207
rtibia 12.4944
rfoot -18.5284 0.828683
rtoes -3.69527
lfemur -25.1524 4.48889 -24.0341
ltibia 12.3303
lfoot -11.399 -2.10384
ltoes -11.4169
906
root 3.35167 17.4216 -2.01068 -181.66 -34.0227 -177.349
lowerback 0.309238 1.50686 5.06854
upperback 3.15304 1.87813 -0.473777
thorax 3.26487 1.05463 -3.28006
lowerneck -3.03461 -4.38775 -4.03861
upperneck 13.4135 -6.74691 5.3558
head 4.83296 -3.36966 1.94717
rclavicle -1.26353e-014 2.22639e-014
rhumerus -25.7514 4.55404 -90.7152
rradius 31.4665
rwrist 14.0689
rhand -7.56666 9.13107
rfingers 7.12502
rthumb 18.3258 -20.0257
lclavicle -1.26353e-014 2.22639e-014
lhumerus -41.2684 -4.24242 91.0215
lradius 28.8545
lwrist 32.5726
lhand -12.5727 10.8516
lfingers 7.12502
lthumb 13.5051 40.3937
rfemur 10.4143 -2.98447 28.9707
rtibia 12.1869
rfoot -18.3334 1.02356
rtoes -3.92093
lfemur -25.1181 4.4123 -23.8701
ltibia 12.1199
lfoot -11.4026 -1.9973
ltoes -11.2796
907
root 3.30107 17.4167 -2.08306 -181.678 -33.8294 -177.076
lowerback 0.197665 1.53088 5.27724
upperback 3.10789 1.90396 -0.470604
thorax 3.29174 1.07395 -3.39067
lowerneck -3.01121 -4.37225 -4.14029
upperneck 13.4355 -6.744 5.50225
head 4.8436 -3.36688 2.00926
rclavicle 3.25137e-014 9.34288e-015
rhumerus -25.6819 4.90556 -90.9758
rradius 31.8172
rwrist 13.8395
rhand -7.56731 9.13441
rfingers 7.12502
rthumb 18.3251 -20.0224
lclavicle 3.25137e-014 9.34288e-015
lhumerus -41.4837 -4.12001 90.9729
lradius 28.6529
lwrist 32.7074
lhand -12.4649 10.9455
lfingers 7.12502
lthumb 13.609 40.4807
rfemur 10.7379 -2.98027 29.1641
rtibia 11.9007
rfoot -18.1226 1.20024
rtoes -3.53639
lfemur -25.1146 4.14557 -23.5453
ltibia 11.9559
lfoot -11.4857 -1.65671
ltoes -11.1178
908
root 3.24924 17.4104 -2.15777 -181.694 -33.628 -176.885
lowerback 0.128756 1.58785 5.38137
upperback 3.07735 1.97622 -0.461608
thorax 3.31011 1.11315 -3.43583
lowerneck -3.04278 -4.39293 -4.11137
upperneck 13.5159 -6.77769 5.47329
head 4.87346 -3.38368 1.99206
rclavicle -3.60297e-014 -7.55382e-015
rhumerus -25.6193 5.14913 -91.1383
rradius 32.1061
rwrist 13.6507
rhand -7.64409 9.1792
rfingers 7.12502
rthumb 18.2513 -19.9846
lclavicle -3.60297e-014 -7.55382e-015
lhumerus -41.6809 -4.27099 91.115
lradius 28.3405
lwrist 32.7115
lhand -12.7838 10.7297
lfingers 7.12502
lthumb 13.3016 40.2852
rfemur 11.1317 -2.74666 29.3395
rtibia 11.6003
rfoot -17.8999 1.14874
rtoes -3.78843
lfemur -25.0614 4.12655 -23.3646
ltibia 11.8668
lfoot -11.5335 -1.53488
ltoes -11.2524
909
root 3.1943 17.405 -2.23465 -181.694 -33.402 -176.853
lowerback 0.0791239 1.62743 5.34332
upperback 3.0831 2.02681 -0.462858
thorax 3.34769 1.13847 -3.41248
lowerneck -3.05737 -4.37964 -4.04866
upperneck 13.578 -6.75104 5.34081
head 4.88732 -3.37485 1.94172
rclavicle 1.41137e-014 3.37934e-015
rhumerus -25.5276 5.47238 -91.2879
rradius 32.3385
rwrist 13.4836
rhand -7.71385 9.34438
rfingers 7.12502
rthumb 18.1842 -19.8256
lclavicle 1.41137e-014 3.37934e-015
lhumerus -41.8224 -4.12398 91.1372
lradius 27.8575
lwrist 32.2725
lhand -12.9998 10.1239
lfingers 7.12502
lthumb 13.0934 39.6928
rfemur 11.5903 -2.60599 29.3174
rtibia 11.3485
rfoot -17.6485 1.24824
rtoes -4.22989
lfemur -24.9216 4.22005 -23.3397
ltibia 11.8169
lfoot -11.4857 -1.55008
ltoes -11.1137
910
root 3.14274 17.3991 -2.31263 -181.664 -33.1261 -176.791
lowerback 0.0162357 1.67628 5.28292
upperback 3.04629 2.09209 -0.456638
thorax 3.34851 1.16929 -3.36856
lowerneck -2.98857 -4.31804 -4.05236
upperneck 13.6177 -6.67 5.29947
head 4.88252 -3.34042 1.93572
rclavicle 6.74625e-014 3.97569e-015
rhumerus -25.5779 5.90106 -91.4965
rradius 32.7151
rwrist 13.1813
rhand -7.73792 9.3666
rfingers 7.12502
rthumb 18.161 -19.8056
lclavicle 6.74625e-014 3.97569e-015
lhumerus -41.9602 -3.90013 91.0885
lradius 27.4517
lwrist 32.0296
lhand -13.0192 9.96637
lfingers 7.12502
lthumb 13.0747 39.5365
rfemur 11.9569 -2.45232 29.3245
rtibia 11.1733
rfoot -17.404 1.44026
rtoes -3.88403
lfemur -24.8209 4.37179 -23.2678
ltibia 11.7602
lfoot -11.2849 -1.63222
ltoes -9.86225
911
root 3.08958 17.3912 -2.39031 -181.677 -32.8919 -176.628
lowerback -0.0357069 1.73229 5.37724
upperback 3.01524 2.16502 -0.478525
thorax 3.35797 1.20887 -3.44036
lowerneck -3.04598 -4.28477 -4.02366
upperneck 13.711 -6.64049 5.33987
head 4.91975 -3.32242 1.94296
rclavicle 2.21148e-015 -9.34288e-015
rhumerus -25.5697 6.19942 -91.7248
rradius 33.0324
rwrist 12.9863
rhand -7.76601 9.20738
rfingers 7.12502
rthumb 18.134 -19.9673
lclavicle 2.21148e-015 -9.34288e-015
lhumerus -42.0302 -3.78246 90.9781
lradius 27.1016
lwrist 31.9404
lhand -12.9831 10.1795
lfingers 7.12502
lthumb 13.1095 39.7475
rfemur 12.3386 -2.25437 29.4473
rtibia 10.9492
rfoot -17.2219 1.48111
rtoes -4.09623
lfemur -24.7016 4.24422 -23.0297
ltibia 11.7956
lfoot -11.248 -1.44351
ltoes -9.6233
912
root 3.02921 17.391 -2.4708 -181.55 -32.6669 -176.649
lowerback -0.153207 1.75883 5.33096
upperback 2.95509 2.20038 -0.509864
thorax 3.36443 1.22611 -3.44295
lowerneck -3.04725 -4.23861 -4.00716
upperneck 13.7685 -6.57799 5.28799
head 4.93229 -3.29478 1.92744
rclavicle 1.00337e-013 -7.55382e-015
rhumerus -25.6363 6.69273 -91.921
rradius 33.3825
rwrist 12.8408
rhand -7.689 8.92849
rfingers 7.12502
rthumb 18.2081 -20.2393
lclavicle 1.00337e-013 -7.55382e-015
lhumerus -42.1508 -3.43264 90.8317
lradius 26.7331
lwrist 31.7202
lhand -12.8102 10.2956
lfingers 7.12502
lthumb 13.2761 39.8527
rfemur 12.6634 -2.13016 29.3431
rtibia 10.8136
rfoot -16.9887 1.67357
rtoes -4.30417
lfemur -24.5495 4.41821 -23.1077
ltibia 11.7867
lfoot -11.2048 -1.32311
ltoes -11.6163
913
root 2.96721 17.389 -2.55557 -181.408 -32.4929 -176.657
lowerback -0.329364 1.7885 5.2385
upperback 2.8788 2.23808 -0.512745
thorax 3.38409 1.24314 -3.38841
lowerneck -3.03331 -4.2084 -3.98197
upperneck 13.8653 -6.53788 5.19844
head 4.95409 -3.28072 1.89752
rclavicle 4.37326e-015 -1.13307e-014
rhumerus -25.7371 6.97847 -92.0376
rradius 33.6472
rwrist 12.7494
rhand -7.55546 8.83448
rfingers 7.12502
rthumb 18.3365 -20.3213
lclavicle 4.37326e-015 -1.13307e-014
lhumerus -42.3183 -3.18861 90.7636
lradius 26.3958
lwrist 31.516
lhand -12.6136 10.5123
lfingers 7.12502
lthumb 13.4656 40.057
rfemur 12.8689 -2.07891 29.234
rtibia 10.9023
rfoot -16.7364 1.95422
rtoes -4.54062
lfemur -24.312 4.68262 -23.2096
ltibia 11.6241
lfoot -11.0481 -1.34346
ltoes -12.5722
914
root 2.90722 17.3759 -2.64235 -181.351 -32.3095 -176.629
lowerback -0.428055 1.84214 5.20943
upperback 2.82693 2.31113 -0.584444
thorax 3.39491 1.28045 -3.44114
lowerneck -3.18419 -4.20375 -3.84284
upperneck 14.1102 -6.55867 5.17084
head 5.05074 -3.28517 1.85912
rclavicle -4.11236e-014 6.36111e-015
rhumerus -25.7762 6.98081 -92.2249
rradius 33.8473
rwrist 12.7152
rhand -7.42228 8.90924
rfingers 7.12502
rthumb 18.4646 -20.2344
lclavicle -4.11236e-014 6.36111e-015
lhumerus -42.4281 -3.0763 90.5768
lradius 26.0405
lwrist 31.4046
lhand -12.6581 10.7495
lfingers 7.12502
lthumb 13.4228 40.297
rfemur 13.0911 -1.98166 29.1957
rtibia 11.1054
rfoot -16.5787 2.13502
rtoes -4.69806
lfemur -23.9415 4.50747 -23.061
ltibia 11.4255
lfoot -10.8954 -1.31002
ltoes -9.59033
